<svg width="20" height="20" viewBox="0 0 20 20" fill="none" xmlns="http://www.w3.org/2000/svg">
<path d="M10 19.7918C8.50856 19.7905 7.07859 19.1974 6.02399 18.1428C4.96938 17.0882 4.37632 15.6583 4.375 14.1668V4.16683C4.375 1.9835 6.15 0.208496 8.33333 0.208496C10.5167 0.208496 12.2917 1.9835 12.2917 4.16683V13.3335C12.2917 14.5968 11.2633 15.6252 10 15.6252C8.73667 15.6252 7.70833 14.5968 7.70833 13.3335V5.8335C7.70833 5.66774 7.77418 5.50876 7.89139 5.39155C8.0086 5.27434 8.16757 5.2085 8.33333 5.2085C8.49909 5.2085 8.65806 5.27434 8.77527 5.39155C8.89248 5.50876 8.95833 5.66774 8.95833 5.8335V13.3335C8.97339 13.5996 9.0897 13.8498 9.2834 14.0329C9.47709 14.2159 9.7335 14.3179 10 14.3179C10.2665 14.3179 10.5229 14.2159 10.7166 14.0329C10.9103 13.8498 11.0266 13.5996 11.0417 13.3335V4.16683C11.0417 2.6735 9.82667 1.4585 8.33333 1.4585C6.84 1.4585 5.625 2.6735 5.625 4.16683V14.1668C5.625 16.5785 7.58833 18.5418 10 18.5418C12.4117 18.5418 14.375 16.5785 14.375 14.1668V5.8335C14.375 5.66774 14.4408 5.50876 14.5581 5.39155C14.6753 5.27434 14.8342 5.2085 15 5.2085C15.1658 5.2085 15.3247 5.27434 15.4419 5.39155C15.5592 5.50876 15.625 5.66774 15.625 5.8335V14.1668C15.6237 15.6583 15.0306 17.0882 13.976 18.1428C12.9214 19.1974 11.4914 19.7905 10 19.7918Z" fill="white" fill-opacity="0.5"/>
</svg>
