<svg width="24" height="24" viewBox="0 0 24 24" fill="none" xmlns="http://www.w3.org/2000/svg">
<path d="M17.534 14.3893C17.1245 13.963 16.6306 13.735 16.1072 13.735C15.588 13.735 15.0899 13.9587 14.6636 14.3851L13.3297 15.7147C13.2199 15.6556 13.1102 15.6008 13.0047 15.5459C12.8527 15.4699 12.7092 15.3981 12.5868 15.3222C11.3373 14.5286 10.2018 13.4944 9.11278 12.1563C8.58514 11.4894 8.23056 10.928 7.97307 10.3581C8.31921 10.0415 8.64001 9.71227 8.95238 9.39568C9.07057 9.27749 9.18876 9.15508 9.30695 9.03688C10.1934 8.15044 10.1934 7.0023 9.30695 6.11586L8.15458 4.96349C8.02373 4.83263 7.88865 4.69755 7.76202 4.56248C7.50875 4.30077 7.24282 4.03061 6.96844 3.77734C6.55899 3.37212 6.06934 3.15684 5.55436 3.15684C5.03938 3.15684 4.54129 3.37212 4.11917 3.77734L4.11073 3.78579L2.67554 5.23364C2.13524 5.77394 1.8271 6.43244 1.75956 7.19647C1.65825 8.42904 2.02127 9.57719 2.29986 10.3286C2.98369 12.1732 4.0052 13.8828 5.52903 15.7147C7.37789 17.9224 9.60243 19.6657 12.1436 20.8941C13.1144 21.3542 14.4103 21.8987 15.8582 21.9916C15.9468 21.9958 16.0397 22 16.1241 22C17.0992 22 17.9181 21.6496 18.5597 20.9532C18.5639 20.9447 18.5724 20.9405 18.5766 20.9321C18.7961 20.6661 19.0493 20.4255 19.3153 20.168C19.4968 19.995 19.6825 19.8135 19.864 19.6235C20.2819 19.1887 20.5014 18.6822 20.5014 18.163C20.5014 17.6396 20.2777 17.1372 19.8514 16.7151L17.534 14.3893ZM19.0451 18.8341C19.0409 18.8341 19.0409 18.8384 19.0451 18.8341C18.8805 19.0114 18.7117 19.1718 18.5301 19.3491C18.2558 19.6108 17.9772 19.8852 17.7155 20.1934C17.2891 20.6492 16.7868 20.8645 16.1283 20.8645C16.065 20.8645 15.9975 20.8645 15.9341 20.8603C14.6805 20.7801 13.5154 20.2904 12.6417 19.8725C10.2525 18.716 8.15458 17.0739 6.41125 14.9929C4.97184 13.258 4.00942 11.654 3.37203 9.93177C2.97947 8.8807 2.83595 8.0618 2.89926 7.28933C2.94148 6.79546 3.13143 6.38601 3.48178 6.03565L4.92119 4.59625C5.12803 4.40207 5.34753 4.29654 5.5628 4.29654C5.82874 4.29654 6.04401 4.45695 6.17909 4.59202L6.19175 4.60469C6.44924 4.84529 6.69407 5.09434 6.95156 5.36027C7.08241 5.49535 7.21749 5.63042 7.35257 5.76972L8.50494 6.92209C8.95238 7.36953 8.95238 7.78321 8.50494 8.23065C8.38252 8.35306 8.26433 8.47547 8.14192 8.59366C7.78734 8.95668 7.44965 9.29437 7.08241 9.62362C7.07397 9.63206 7.06553 9.63629 7.06131 9.64473C6.69829 10.0077 6.76583 10.3623 6.84181 10.6029L6.85447 10.6409C7.15417 11.367 7.57629 12.0508 8.2179 12.8655L8.22212 12.8697C9.38716 14.3049 10.6155 15.4235 11.9705 16.2804C12.1436 16.3901 12.3208 16.4788 12.4897 16.5632C12.6417 16.6392 12.7852 16.7109 12.9076 16.7869C12.9245 16.7953 12.9414 16.808 12.9582 16.8164C13.1018 16.8882 13.2368 16.922 13.3761 16.922C13.7265 16.922 13.946 16.7025 14.0177 16.6307L15.4614 15.1871C15.6049 15.0436 15.8328 14.8705 16.0988 14.8705C16.3605 14.8705 16.5758 15.0351 16.7066 15.1786L16.7151 15.1871L19.0409 17.5129C19.4757 17.9435 19.4757 18.3867 19.0451 18.8341ZM12.5361 6.75747C13.6421 6.9432 14.6467 7.46662 15.4487 8.26864C16.2507 9.07065 16.7699 10.0753 16.9599 11.1812C17.0063 11.4598 17.2469 11.654 17.5213 11.654C17.5551 11.654 17.5846 11.6498 17.6184 11.6455C17.9307 11.5949 18.1376 11.2994 18.0869 10.9871C17.859 9.64895 17.2258 8.42904 16.2592 7.4624C15.2925 6.49576 14.0726 5.86259 12.7345 5.63465C12.4222 5.58399 12.1309 5.79083 12.076 6.09897C12.0211 6.40711 12.2238 6.70682 12.5361 6.75747ZM21.7044 10.8224C21.3288 8.61899 20.2904 6.61395 18.6948 5.01836C17.0992 3.42277 15.0941 2.38437 12.8907 2.00869C12.5826 1.95381 12.2913 2.16487 12.2364 2.47301C12.1858 2.78538 12.3926 3.07664 12.705 3.13151C14.672 3.46498 16.466 4.39785 17.8927 5.82038C19.3195 7.24712 20.2481 9.04111 20.5816 11.0082C20.628 11.2868 20.8687 11.4809 21.143 11.4809C21.1768 11.4809 21.2063 11.4767 21.2401 11.4725C21.5483 11.426 21.7593 11.1306 21.7044 10.8224Z" fill="white" fill-opacity="1"/>
</svg>
