<svg width="24" height="24" viewBox="0 0 24 24" fill="none" xmlns="http://www.w3.org/2000/svg">
<mask id="mask0_1_5449" style="mask-type:luminance" maskUnits="userSpaceOnUse" x="2" y="2" width="20" height="20">
<path d="M22 2H2V22H22V2Z" fill="white"/>
<path d="M12.971 12C12.971 12.5393 12.5338 12.9766 11.9944 12.9766C11.4551 12.9766 11.0179 12.5393 11.0179 12C11.0179 11.4607 11.4551 11.0234 11.9944 11.0234C12.5338 11.0234 12.971 11.4607 12.971 12Z" fill="white"/>
<path d="M16.8773 12C16.8773 12.5393 16.44 12.9766 15.9007 12.9766C15.3614 12.9766 14.9241 12.5393 14.9241 12C14.9241 11.4607 15.3614 11.0234 15.9007 11.0234C16.44 11.0234 16.8773 11.4607 16.8773 12Z" fill="white"/>
<path d="M9.06475 12C9.06475 12.5393 8.62753 12.9766 8.08819 12.9766C7.54886 12.9766 7.11163 12.5393 7.11163 12C7.11163 11.4607 7.54886 11.0234 8.08819 11.0234C8.62753 11.0234 9.06475 11.4607 9.06475 12Z" fill="white"/>
</mask>
<g mask="url(#mask0_1_5449)">
<mask id="mask1_1_5449" style="mask-type:luminance" maskUnits="userSpaceOnUse" x="2" y="2" width="20" height="20">
<path d="M21.5 21.5001V2.50006H2.5V21.5001H21.5Z" fill="white" stroke="white"/>
</mask>
<g mask="url(#mask1_1_5449)">
<path d="M12 2.78137C6.90862 2.78137 2.78125 6.90874 2.78125 12.0001C2.78125 13.7925 3.29332 15.465 4.17836 16.8804L2.78125 21.2188L7.11964 19.8217C8.53506 20.7067 10.2076 21.2188 12 21.2188C17.0913 21.2188 21.2187 17.0914 21.2187 12.0001C21.2187 6.90874 17.0913 2.78137 12 2.78137Z" stroke="white" stroke-opacity="1" stroke-width="1.5" stroke-miterlimit="10" stroke-linecap="round" stroke-linejoin="round"/>
<path d="M12.971 12.0001C12.971 12.5394 12.5338 12.9766 11.9944 12.9766C11.4551 12.9766 11.0179 12.5394 11.0179 12.0001C11.0179 11.4607 11.4551 11.0235 11.9944 11.0235C12.5338 11.0235 12.971 11.4607 12.971 12.0001Z" fill="white" fill-opacity="1"/>
<path d="M11.9944 12.4766C12.2576 12.4766 12.471 12.2633 12.471 12.0001C12.471 11.7369 12.2576 11.5235 11.9944 11.5235C11.7313 11.5235 11.5179 11.7369 11.5179 12.0001C11.5179 12.2633 11.7313 12.4766 11.9944 12.4766Z" stroke="white" stroke-opacity="1"/>
<path d="M16.8773 12.0001C16.8773 12.5394 16.44 12.9766 15.9007 12.9766C15.3614 12.9766 14.9241 12.5394 14.9241 12.0001C14.9241 11.4607 15.3614 11.0235 15.9007 11.0235C16.44 11.0235 16.8773 11.4607 16.8773 12.0001Z" fill="white" fill-opacity="1"/>
<path d="M15.9007 12.4766C16.1639 12.4766 16.3773 12.2633 16.3773 12.0001C16.3773 11.7369 16.1639 11.5235 15.9007 11.5235C15.6375 11.5235 15.4241 11.7369 15.4241 12.0001C15.4241 12.2633 15.6375 12.4766 15.9007 12.4766Z" stroke="white" stroke-opacity="1"/>
<path d="M9.06475 12.0001C9.06475 12.5394 8.62753 12.9766 8.08819 12.9766C7.54886 12.9766 7.11163 12.5394 7.11163 12.0001C7.11163 11.4607 7.54886 11.0235 8.08819 11.0235C8.62753 11.0235 9.06475 11.4607 9.06475 12.0001Z" fill="white" fill-opacity="1"/>
<path d="M8.0882 12.4766C8.35139 12.4766 8.56476 12.2633 8.56476 12.0001C8.56476 11.7369 8.35139 11.5235 8.0882 11.5235C7.825 11.5235 7.61163 11.7369 7.61163 12.0001C7.61163 12.2633 7.825 12.4766 8.0882 12.4766Z" stroke="white" stroke-opacity="1"/>
</g>
</g>
</svg>
