<svg width="24" height="24" viewBox="0 0 24 24" fill="none" xmlns="http://www.w3.org/2000/svg">
<g clip-path="url(#clip0_1_5503)">
<path d="M23.6123 13.1382C23.0247 12.1472 22.1881 11.317 21.1927 10.7375C20.9169 10.5772 20.6299 10.4368 20.334 10.3175C20.3841 10.2725 20.4329 10.2263 20.4805 10.1787C21.9596 8.69972 21.9596 6.29316 20.4805 4.8142C19.0016 3.33506 16.595 3.33506 15.116 4.8142C14.4285 5.50158 14.061 6.38967 14.0128 7.29164C13.4151 6.91589 12.7232 6.71377 11.9999 6.71377C11.2774 6.71377 10.5864 6.91552 9.9891 7.29033C9.93927 6.3547 9.55166 5.4818 8.88383 4.8142C8.16735 4.09772 7.21485 3.70312 6.20155 3.70312C5.18844 3.70312 4.2357 4.09772 3.51941 4.8142C2.80292 5.53069 2.40833 6.48328 2.40833 7.49653C2.40833 8.50964 2.80292 9.46233 3.51941 10.1787C3.56698 10.2262 3.61582 10.2725 3.66589 10.3174C3.36999 10.4368 3.083 10.5771 2.80714 10.7375C1.81175 11.317 0.975174 12.1472 0.387596 13.1382C-0.122029 13.9979 -0.129717 15.0319 0.367252 15.904C0.869142 16.7851 1.77313 17.3112 2.78516 17.3112H5.80897C5.76097 17.8565 5.87947 18.4124 6.16569 18.9146C6.66753 19.7957 7.57152 20.3218 8.58355 20.3218H15.4165C16.4285 20.3218 17.3323 19.7957 17.8344 18.9146C18.1204 18.4124 18.2389 17.8565 18.1909 17.3112H21.2147C22.2268 17.3112 23.1307 16.7851 23.6326 15.904C24.1296 15.0319 24.1219 13.9979 23.6123 13.1382ZM22.3588 15.1782C22.1209 15.5958 21.6932 15.845 21.2147 15.845H17.6217C17.0498 14.9881 16.2861 14.2674 15.3943 13.7481C15.1185 13.5879 14.8316 13.4475 14.5358 13.3281C14.5858 13.2831 14.6346 13.2369 14.6823 13.1895C15.0858 12.7859 15.3872 12.3073 15.5736 11.7851C16.2617 11.4648 17.0198 11.2897 17.7983 11.2897C19.6572 11.2897 21.4018 12.2845 22.3511 13.8858C22.5887 14.2864 22.5915 14.7697 22.3588 15.1782ZM16.5527 16.8964C16.7903 17.2972 16.7933 17.7805 16.5604 18.189C16.3225 18.6064 15.895 18.8558 15.4163 18.8558H8.58355C8.10496 18.8558 7.67717 18.6065 7.43933 18.189C7.2066 17.7804 7.20955 17.2972 7.44702 16.8964C8.39642 15.2952 10.1409 14.3003 11.9999 14.3003C13.859 14.3003 15.6035 15.2952 16.5527 16.8964ZM1.64113 15.1784C1.40821 14.7696 1.41111 14.2864 1.64881 13.8858C2.59803 12.2845 4.34249 11.2897 6.20155 11.2897C6.97991 11.2897 7.73797 11.4648 8.42624 11.785C8.61266 12.3071 8.91406 12.7857 9.31761 13.1895C9.36542 13.2371 9.41431 13.2832 9.4641 13.3281C9.16824 13.4475 8.88126 13.5879 8.60535 13.7481C7.71378 14.2674 6.9501 14.9881 6.37803 15.845H2.78516C2.3067 15.845 1.87897 15.5958 1.64113 15.1784ZM4.55595 9.14203C4.1165 8.70239 3.87444 8.11795 3.87444 7.49648C3.87444 6.87483 4.1165 6.29039 4.556 5.8507C4.9956 5.41125 5.57989 5.16919 6.20155 5.16919C6.8232 5.16919 7.40764 5.41125 7.84733 5.85075C8.28674 6.29034 8.5288 6.87483 8.5288 7.49648C8.5288 8.11795 8.28674 8.70239 7.84728 9.14203C7.40764 9.58148 6.8232 9.82373 6.2015 9.82373C5.5798 9.82373 4.9956 9.58148 4.55595 9.14203ZM17.7981 5.17031C18.3942 5.17031 18.9902 5.397 19.4439 5.8507C20.3512 6.7582 20.3512 8.23458 19.4439 9.14203C18.5364 10.0495 17.06 10.0493 16.1526 9.14203C15.2453 8.23453 15.2453 6.7582 16.1526 5.8507C16.6063 5.39719 17.2023 5.17031 17.7981 5.17031ZM13.6455 8.86153C14.0852 9.30098 14.3272 9.88547 14.3272 10.5071C14.3272 11.1287 14.0851 11.713 13.6455 12.1527C13.206 12.5924 12.6216 12.8344 11.9999 12.8344C11.3783 12.8344 10.7938 12.5923 10.3544 12.1527C9.91471 11.713 9.67269 11.1287 9.67269 10.5071C9.67269 9.88547 9.91475 9.30098 10.3544 8.86153C10.7938 8.42189 11.3783 8.17983 11.9999 8.17983C12.6216 8.17983 13.206 8.42189 13.6455 8.86153Z" fill="white" fill-opacity="1"/>
</g>
<defs>
<clipPath id="clip0_1_5503">
<rect width="24" height="24" fill="white"/>
</clipPath>
</defs>
</svg>
