<svg width="24" height="24" viewBox="0 0 24 24" fill="none" xmlns="http://www.w3.org/2000/svg">
<path d="M12 0C9.68176 0 7.79565 1.88611 7.79565 4.20436V12.4674C7.79565 14.7854 9.68176 16.6715 12 16.6715C14.3183 16.6715 16.2044 14.7985 16.2044 12.4963V4.20436C16.2044 1.88611 14.3183 0 12 0ZM14.4523 12.4961C14.4523 13.8322 13.3521 14.9194 12 14.9194C10.6479 14.9194 9.54747 13.8195 9.54747 12.4672V4.20436C9.54747 2.85197 10.6476 1.75181 12 1.75181C13.3524 1.75181 14.4526 2.85197 14.4523 4.20436V12.4961ZM11.1241 19.1825H12.8759V23.1241H11.1241V19.1825Z" fill="#6366F1"/>
<path d="M14.3066 22.2482H9.69342C9.20962 22.2482 8.81751 22.6403 8.81751 23.1241C8.81751 23.6079 9.20962 24 9.69342 24H14.3066C14.7904 24 15.1825 23.6079 15.1825 23.1241C15.1825 22.6403 14.7904 22.2482 14.3066 22.2482ZM18.6277 11.0073C18.1439 11.0073 17.7518 11.3994 17.7518 11.8832V12.584C17.7518 15.7553 15.1714 18.3358 12 18.3358C8.82834 18.3358 6.24815 15.7554 6.24815 12.584V11.8832C6.24815 11.3994 5.85604 11.0073 5.37224 11.0073C4.88845 11.0073 4.49634 11.3994 4.49634 11.8832V12.584C4.49634 16.7215 7.86248 20.0876 12 20.0876C16.1375 20.0876 19.5037 16.7215 19.5037 12.584V11.8832C19.5037 11.3995 19.1115 11.0073 18.6277 11.0073Z" fill="#6366F1"/>
</svg>
