<svg width="24" height="24" viewBox="0 0 24 24" fill="none" xmlns="http://www.w3.org/2000/svg">
<path d="M14.9028 10.81C16.1185 9.9233 16.9102 8.48835 16.9102 6.87179C16.9102 4.18548 14.7248 2 12.0384 2C9.35214 2 7.16665 4.18548 7.16665 6.87179C7.16665 8.48835 7.95831 9.9233 9.17409 10.81C6.1519 11.9665 4 14.8967 4 18.3205C4 19.798 5.20201 21 6.67948 21H17.3974C18.8749 21 20.0769 19.798 20.0769 18.3205C20.0769 14.8967 17.925 11.9665 14.9028 10.81ZM8.62821 6.87179C8.62821 4.99139 10.158 3.46155 12.0384 3.46155C13.9189 3.46155 15.4487 4.99139 15.4487 6.87179C15.4487 8.7522 13.9189 10.2821 12.0384 10.2821C10.158 10.2821 8.62821 8.7522 8.62821 6.87179ZM17.3974 19.5384H6.67948C6.00791 19.5384 5.46155 18.9921 5.46155 18.3205C5.46155 14.6939 8.4119 11.7435 12.0385 11.7435C15.6651 11.7435 18.6154 14.6939 18.6154 18.3205C18.6154 18.9921 18.069 19.5384 17.3974 19.5384Z" fill="white" fill-opacity="1"/>
</svg>
