<svg width="24" height="24" viewBox="0 0 24 24" fill="none" xmlns="http://www.w3.org/2000/svg">
<path d="M14.76 22.6499C14.3469 22.6435 13.9431 22.5258 13.5912 22.3094C13.2393 22.0929 12.9521 21.7857 12.76 21.4199L9.27997 15.0599C9.20418 14.9144 9.08548 14.7957 8.93997 14.7199L2.57997 11.2899C2.17586 11.0704 1.84539 10.7367 1.62985 10.3304C1.41431 9.92419 1.32326 9.46344 1.36807 9.00574C1.41288 8.54804 1.59156 8.11369 1.8818 7.75696C2.17203 7.40022 2.56095 7.13692 2.99997 6.99994L19.57 1.46994C19.9884 1.32165 20.4403 1.29492 20.8733 1.39284C21.3063 1.49077 21.7027 1.70934 22.0167 2.02326C22.3306 2.33718 22.5491 2.73359 22.6471 3.1666C22.745 3.59961 22.7183 4.0515 22.57 4.46994L17 21.0499C16.86 21.4823 16.5956 21.8638 16.2398 22.1466C15.8841 22.4295 15.4528 22.6011 15 22.6399L14.76 22.6499ZM20 2.89994L3.42997 8.42994C3.272 8.48073 3.13261 8.57717 3.02939 8.70709C2.92617 8.837 2.86373 8.99458 2.84997 9.15994C2.83504 9.32333 2.86887 9.48747 2.94718 9.63164C3.0255 9.77581 3.14478 9.89353 3.28997 9.96994L9.64997 13.3999C10.0545 13.6145 10.3854 13.9454 10.6 14.3499L14 20.7099C14.0764 20.8551 14.1941 20.9744 14.3383 21.0527C14.4824 21.131 14.6466 21.1649 14.81 21.1499C14.9753 21.1362 15.1329 21.0737 15.2628 20.9705C15.3927 20.8673 15.4892 20.7279 15.54 20.5699L21.1 3.99994C21.1647 3.84608 21.1821 3.67642 21.15 3.51261C21.1179 3.34881 21.0377 3.19828 20.9197 3.08025C20.8016 2.96222 20.6511 2.88203 20.4873 2.84991C20.3235 2.8178 20.1538 2.83522 20 2.89994Z" fill="#6366F1"/>
<path d="M9.67007 15.0798C9.57129 15.082 9.47312 15.0636 9.38186 15.0257C9.29059 14.9878 9.20824 14.9313 9.14007 14.8598C9.06932 14.7908 9.01308 14.7084 8.97468 14.6174C8.93629 14.5264 8.9165 14.4286 8.9165 14.3298C8.9165 14.231 8.93629 14.1332 8.97468 14.0422C9.01308 13.9512 9.06932 13.8687 9.14007 13.7998L20.9001 1.99979C21.0459 1.85392 21.2438 1.77197 21.4501 1.77197C21.6564 1.77197 21.8542 1.85392 22.0001 1.99979C22.1459 2.14566 22.2279 2.3435 22.2279 2.54979C22.2279 2.75608 22.1459 2.95392 22.0001 3.09979L10.2001 14.8598C10.1308 14.9299 10.0483 14.9855 9.95727 15.0233C9.86625 15.061 9.76861 15.0803 9.67007 15.0798Z" fill="#6366F1"/>
</svg>
